# xmcd
#
# Track frame offsets: 
#        278
#        11026
#        24266
#        40827
#        52003
#        61211
#        75697
#        97376
#        111536
#        120950
#        130948
#        152188
#
# Disc length: 2312 seconds
#
# Revision: 0
# Processed by: cddbd v1.5.2PL0 Copyright (c) Steve Scherf et al.
# Submitted via: ExactAudioCopy v0.99pb5
#
DISCID=9f09050c
DTITLE=Texas Tea - Sad Summer Hits
DYEAR=2012
DGENRE=Country Pop
TTITLE0=The Merry Blues
TTITLE1=Lily
TTITLE2=I Know That I Let You Down This Time
TTITLE3=Heart Says Yes (Head Says No)
TTITLE4=The Alphabet Song
TTITLE5=Have I Got The Worry?
TTITLE6=I Don't Write No Sad Songs
TTITLE7=The Fog
TTITLE8=Wedding Belle
TTITLE9=Take These Arms
TTITLE10=I Love You Like I Love This Black Eye
TTITLE11=The Old Swing
EXTD=
EXTT0=
EXTT1=
EXTT2=
EXTT3=
EXTT4=
EXTT5=
EXTT6=
EXTT7=
EXTT8=
EXTT9=
EXTT10=
EXTT11=
PLAYORDER=
